<svg id="Layer_5" enable-background="new 0 0 64 64" height="512" viewBox="0 0 64 64" width="512" xmlns="http://www.w3.org/2000/svg"><g><g><g><path d="m2 24h60v38h-60z" fill="#e6e9ed"/></g><g><path d="m18 53.65v8.35h-6v-9.54c1.06.96 2.46 1.54 4 1.54.7 0 1.37-.12 2-.35z" fill="#b4dd7f"/></g><g><path d="m18 24v18.35c-.63-.23-1.3-.35-2-.35-1.54 0-2.94.58-4 1.54v-7.54h-10v-6h10v-6z" fill="#b4dd7f"/></g><g><path d="m50.66 28.15c4.23.46 7.34 2.01 7.34 3.85 0 2.21-4.48 4-10 4s-10-1.79-10-4c0-1.84 3.11-3.39 7.34-3.85.17.61.29 1.24.38 1.87.16 1.14 1.13 1.98 2.28 1.98s2.12-.84 2.28-1.98c.09-.63.21-1.26.38-1.87z" fill="#dfb28b"/></g><g><path d="m18 42.35c2.33.81 4 3.04 4 5.65s-1.67 4.84-4 5.65c-.63.23-1.3.35-2 .35-1.54 0-2.94-.58-4-1.54-1.23-1.09-2-2.69-2-4.46s.77-3.37 2-4.46c1.06-.96 2.46-1.54 4-1.54.7 0 1.37.12 2 .35z" fill="#fcd770"/></g><g><circle cx="16" cy="48" fill="#ffc729" r="2"/></g><g><path d="m58 12v.57c0 2.22-.74 4.38-2.11 6.14l-1.78 2.29c-.73.94-1.37 1.94-1.9 3h-.01c-.68 1.31-1.2 2.7-1.54 4.15-.17.61-.29 1.24-.38 1.87-.16 1.14-1.13 1.98-2.28 1.98s-2.12-.84-2.28-1.98c-.09-.63-.21-1.26-.38-1.87-.34-1.45-.86-2.84-1.54-4.15h-.01c-.53-1.06-1.17-2.06-1.9-3l-1.78-2.29c-1.37-1.76-2.11-3.92-2.11-6.14v-.57c0-2.76 1.12-5.26 2.93-7.07s4.31-2.93 7.07-2.93c5.52 0 10 4.48 10 10z" fill="#ff826e"/></g><g><circle cx="48" cy="12" fill="#ffeaa7" r="6"/></g></g><g><path d="m48 19c3.859 0 7-3.14 7-7s-3.141-7-7-7-7 3.14-7 7 3.141 7 7 7zm0-12c2.757 0 5 2.243 5 5s-2.243 5-5 5-5-2.243-5-5 2.243-5 5-5z"/><path d="m16 45c-1.654 0-3 1.346-3 3s1.346 3 3 3 3-1.346 3-3-1.346-3-3-3zm0 4c-.552 0-1-.449-1-1s.448-1 1-1 1 .449 1 1-.448 1-1 1z"/><path d="m53.935 23c.303-.476.62-.942.967-1.389l1.78-2.289c1.495-1.921 2.318-4.319 2.318-6.753v-.569c0-6.065-4.935-11-11-11s-11 4.935-11 11v.569c0 2.434.823 4.833 2.317 6.753l1.78 2.289c.347.447.665.914.967 1.389h-41.064v40h62v-40zm-13.039-4.905c-1.223-1.573-1.896-3.535-1.896-5.526v-.569c0-4.962 4.037-9 9-9s9 4.038 9 9v.569c0 1.991-.673 3.954-1.896 5.526l-1.78 2.289c-2.144 2.756-3.537 6.039-4.031 9.495-.092.639-.647 1.121-1.293 1.121s-1.201-.482-1.293-1.122c-.494-3.456-1.888-6.739-4.031-9.495zm7.104 16.905c-5.494 0-9-1.777-9-3 0-.804 1.794-2.151 5.57-2.729.057.296.114.592.157.891.232 1.618 1.639 2.838 3.273 2.838s3.041-1.22 3.273-2.838c.043-.299.099-.595.157-.89 3.776.577 5.57 1.924 5.57 2.728 0 1.223-3.506 3-9 3zm-3.929-7.686c-4.332.701-7.071 2.484-7.071 4.686 0 3.045 4.982 4.776 10 4.98v5.02c0 .551-.448 1-1 1h-10c-.552 0-1-.449-1-1v-5c0-1.654-1.346-3-3-3s-3 1.346-3 3v19c0 .551-.448 1-1 1s-1-.449-1-1v-6c0-1.654-1.346-3-3-3h-1.08c-.339-2.353-1.848-4.326-3.92-5.315v-16.685h24.168c.354.75.655 1.523.903 2.314zm-31.071 27.001c.911.434 1.926.685 3 .685.34 0 .672-.033 1-.08v6.08h-4zm3-1.315c-2.757 0-5-2.243-5-5s2.243-5 5-5 5 2.243 5 5-2.243 5-5 5zm-3-28h4v16.08c-.328-.047-.66-.08-1-.08-1.074 0-2.089.251-3 .685v-6.685h-10v-4h10zm-2 0v4h-8v-4zm-8 12h8v6.111c-1.235 1.262-2 2.987-2 4.889s.765 3.627 2 4.889v8.111h-8zm58 24h-42v-6.685c2.072-.989 3.581-2.962 3.92-5.315h1.08c.552 0 1 .449 1 1v6c0 1.654 1.346 3 3 3s3-1.346 3-3v-19c0-.551.448-1 1-1s1 .449 1 1v5c0 1.654 1.346 3 3 3h10c1.654 0 3-1.346 3-3v-5.02c5.018-.204 10-1.935 10-4.98 0-2.202-2.739-3.985-7.071-4.686.248-.792.55-1.564.903-2.314h8.168z"/><path d="m57 57h2v2h-2z"/><path d="m53 57h2v2h-2z"/><path d="m49 57h2v2h-2z"/><path d="m49 53h10v2h-10z"/><path d="m49 49h10v2h-10z"/></g></g></svg>