<svg height="496pt" viewBox="0 0 496 496" width="496pt" xmlns="http://www.w3.org/2000/svg"><path d="m488 248c0 132.546875-107.453125 240-240 240s-240-107.453125-240-240 107.453125-240 240-240 240 107.453125 240 240zm0 0" fill="#85d3c1"/><path d="m136 424v32h-48v-32l1.679688-.878906c8.640624-4.242188 14.082031-12.882813 14.242187-22.480469l.957031.078125zm0 0" fill="#85d3c1"/><path d="m168 400-32 24-31.121094-23.28125-.957031-.078125c.078125-.242187.078125-.402344.078125-.640625s0-.398438-.078125-.640625l.957031-.078125 31.121094-23.28125zm0 0" fill="#ff958a"/><g fill="#f9d48a"><path d="m445.121094 384.878906c6.320312 2.160156 10.878906 8.082032 10.878906 15.121094 0 4.398438-1.761719 8.398438-4.71875 11.28125-2.882812 2.957031-6.882812 4.71875-11.28125 4.71875h-240v-32h240c1.761719 0 3.519531.320312 5.121094.878906zm0 0"/><path d="m165.839844 320c1.359375 2.320312 2.160156 5.121094 2.160156 8v24c0 4.398438 1.761719 8.398438 4.71875 11.28125 2.882812 2.957031 6.882812 4.71875 11.28125 4.71875 8.800781 0 16 7.199219 16 16v32c0 4.398438-1.761719 8.398438-4.71875 11.28125-2.882812 2.957031-6.882812 4.71875-11.28125 4.71875-8.800781 0-16 7.199219-16 16v24c0 .800781-.078125 1.519531-.160156 2.238281-1.121094 7.761719-7.839844 13.761719-15.839844 13.761719h-80c-8.800781 0-16-7.199219-16-16v-144c0-8.800781 7.199219-16 16-16h80c5.921875 0 11.039062 3.199219 13.839844 8zm-29.839844 104 32-24-32-24v-32h-48v32l1.679688.878906c8.640624 4.242188 14.082031 12.882813 14.242187 22.480469.078125.242187.078125.402344.078125.640625s0 .398438-.078125.640625c-.160156 9.597656-5.601563 18.238281-14.242187 22.480469l-1.679688.878906v32h48zm0 0"/><path d="m320 80v80.640625c-2.558594-.480469-5.28125-.640625-8-.640625-7.441406 0-14.640625 1.519531-21.121094 4.160156-.878906-1.359375-1.839844-2.71875-2.878906-4.082031v-80.078125c0-11.039062-4.480469-21.039062-11.679688-28.320312-7.28125-7.199219-17.28125-11.679688-28.320312-11.679688-22.078125 0-40 17.921875-40 40v49.601562c-11.839844 2.398438-22.71875 7.4375-32 14.398438v-64c0-38.398438 30.160156-69.839844 68.078125-71.921875 1.28125-.078125 2.5625-.078125 3.921875-.078125l3.921875.078125c18.316406 1.042969 34.878906 8.882813 46.957031 21.042969 13.042969 12.957031 21.121094 31.039062 21.121094 50.878906zm0 0"/></g><path d="m367.28125 224.800781c2.796875-.5625 5.757812-.800781 8.71875-.800781 26.480469 0 48 21.519531 48 48s-21.519531 48-48 48h-210.160156c-2.800782-4.800781-7.917969-8-13.839844-8h-48v-.558594c-19.121094-11.042968-32-31.761718-32-55.441406 0-35.359375 28.640625-64 64-64 3.199219 0 6.398438.238281 9.519531.71875l.082031-.878906c4-19.441406 15.117188-36.320313 30.398438-47.839844 9.28125-6.960938 20.160156-12 32-14.398438 5.199219-1.042968 10.480469-1.601562 16-1.601562 26.238281 0 49.441406 12.640625 64 32.078125 1.039062 1.363281 2 2.722656 2.878906 4.082031 6.480469-2.640625 13.679688-4.160156 21.121094-4.160156 2.71875 0 5.441406.160156 8 .640625 27.199219 3.839844 48 27.121094 48 55.359375 0 3.039062-.238281 5.921875-.71875 8.800781zm0 0" fill="#f5f7fa"/><path d="m280 208c0 11.839844-6.480469 22-16 27.601562v36.398438c0 4.398438-1.761719 8.398438-4.71875 11.28125-2.882812 2.957031-6.882812 4.71875-11.28125 4.71875-8.800781 0-16-7.199219-16-16v-36.398438c-11.601562-6.800781-18.71875-20.480468-15.039062-35.601562 2.800781-11.359375 12-20.480469 23.359374-23.121094 21.039063-4.878906 39.679688 10.960938 39.679688 31.121094zm0 0" fill="#ff958a"/><path d="m456.183594 382.390625c25.976562-40.117187 39.816406-86.351563 39.816406-134.390625 0-136.753906-111.246094-248-248-248s-248 111.246094-248 248c0 53.207031 16.648438 103.761719 48 146.488281v77.511719c0 13.230469 10.769531 24 24 24h80c8.816406 0 16.457031-4.832031 20.625-11.9375 24.382812 7.785156 49.671875 11.9375 75.375 11.9375 65.96875 0 127.800781-25.574219 174.566406-72h17.433594c13.230469 0 24-10.769531 24-24 0-6.984375-3.046875-13.214844-7.816406-17.609375zm23.816406-134.390625c0 45.902344-13.472656 90.046875-38.785156 128.121094-.414063-.015625-.800782-.121094-1.214844-.121094h-8v-32h-32v16h16v16h-48v-16h16v-16h-32v32h-145.472656c-3.3125-9.289062-12.113282-16-22.527344-16-4.414062 0-8-3.585938-8-8v-24h200c30.871094 0 56-25.128906 56-56s-25.128906-56-56-56c0-29.753906-20.441406-54.761719-48-61.894531v-74.105469c0-22.382812-9.273438-42.625-24.136719-57.160156 101.023438 25.082031 176.136719 116.496094 176.136719 225.160156zm-372.769531 56c-16.796875-10.105469-27.230469-28.382812-27.230469-48 0-30.871094 25.128906-56 56-56s56 25.128906 56 56h16c0-33.03125-22.390625-60.871094-52.769531-69.3125 9.21875-29.742188 37.082031-50.6875 68.769531-50.6875 24.304688 0 46.808594 12.167969 60.183594 32.542969l3.617187 5.503906 6.09375-2.496094c5.792969-2.359375 11.890625-3.550781 18.105469-3.550781 26.472656 0 48 21.527344 48 48 0 .816406-.152344 1.601562-.191406 2.40625-23 6.96875-39.808594 28.347656-39.808594 53.59375h16c0-22.054688 17.945312-40 40-40s40 17.945312 40 40-17.945312 40-40 40h-206.238281c-4.394531-4.871094-10.699219-8-17.761719-8zm140.769531-288c35.289062 0 64 28.710938 64 64v72c-5.441406 0-10.777344.800781-16 2.160156v-74.160156c0-26.472656-21.527344-48-48-48s-48 21.527344-48 48v43.40625c-5.566406 1.59375-10.910156 3.746094-16 6.363281v-49.769531c0-35.289062 28.710938-64 64-64zm32 124.144531c-15.550781-12.871093-35.230469-20.144531-56-20.144531-2.6875 0-5.359375.136719-8 .375v-40.375c0-17.648438 14.351562-32 32-32s32 14.351562 32 32zm-264 107.855469c0-108.664062 75.113281-200.078125 176.136719-225.160156-14.863281 14.535156-24.136719 34.777344-24.136719 57.160156v60.230469c-13.535156 11.175781-23.734375 26.371093-28.679688 43.9375-1.105468-.046875-2.199218-.167969-3.320312-.167969-39.703125 0-72 32.296875-72 72 0 17.945312 6.878906 34.953125 18.558594 48h-10.558594c-13.230469 0-24 10.769531-24 24v37.304688c-20.894531-35.457032-32-75.480469-32-117.304688zm144 224c0 4.414062-3.585938 8-8 8h-80c-4.414062 0-8-3.585938-8-8v-144c0-4.414062 3.585938-8 8-8h80c4.414062 0 8 3.585938 8 8v24c0 13.230469 10.769531 24 24 24 4.414062 0 8 3.585938 8 8v32c0 4.414062-3.585938 8-8 8-13.230469 0-24 10.769531-24 24zm88 8c-24.566406 0-48.734375-4.023438-72-11.625v-20.375c0-4.414062 3.585938-8 8-8 10.414062 0 19.214844-6.710938 22.527344-16h192.496094c-42.03125 36.214844-94.925782 56-151.023438 56zm192-72h-232v-16h232c4.414062 0 8 3.585938 8 8s-3.585938 8-8 8zm0 0" fill="#232323"/><path d="m144 372v-36h-64v44.945312l6.113281 3.054688c6.09375 3.046875 9.886719 9.175781 9.886719 16s-3.792969 12.953125-9.886719 16l-6.113281 3.054688v44.945312h64v-36l37.335938-28zm-26.671875 28 18.671875-14 18.664062 14-18.664062 14zm-21.328125-48h32v20l-18.953125 14.214844c-2.710937-6.117188-7.175781-11.375-13.046875-15.007813zm0 96v-19.207031c5.863281-3.625 10.328125-8.890625 13.046875-15.007813l18.953125 14.214844v20zm0 0" fill="#232323"/><path d="m224 239.839844v32.160156c0 13.230469 10.769531 24 24 24s24-10.769531 24-24v-32.167969c9.96875-7.511719 16-19.328125 16-31.832031 0-12.273438-5.511719-23.695312-15.144531-31.335938-9.625-7.648437-22.152344-10.425781-34.351563-7.558593-14.304687 3.328125-25.808594 14.703125-29.296875 28.964843-3.894531 15.960938 2 32.175782 14.792969 41.769532zm.761719-37.976563c2.039062-8.328125 9.023437-15.238281 17.375-17.183593 1.992187-.464844 3.96875-.6875 5.910156-.6875 5.417969 0 10.546875 1.777343 14.855469 5.199218 5.785156 4.59375 9.097656 11.441406 9.097656 18.808594 0 8.542969-4.496094 16.265625-12.023438 20.648438l-3.976562 2.3125v41.039062c0 4.414062-3.585938 8-8 8s-8-3.585938-8-8v-41.039062l-3.976562-2.3125c-9.480469-5.511719-13.894532-16.023438-11.261719-26.785157zm0 0" fill="#232323"/></svg>