<?xml version="1.0" encoding="windows-1252"?>
<!-- Generator: Adobe Illustrator 19.0.0, SVG Export Plug-In . SVG Version: 6.00 Build 0)  -->
<svg version="1.1" id="Capa_1" xmlns="http://www.w3.org/2000/svg" xmlns:xlink="http://www.w3.org/1999/xlink" x="0px" y="0px" viewBox="0 0 496 496" style="enable-background:new 0 0 496 496;" xml:space="preserve">
<path style="fill:#AFB8C9;" d="M104,8h352c17.672,0,32,14.328,32,32v336c0,17.672-14.328,32-32,32H104c-17.672,0-32-14.328-32-32V40  C72,22.328,86.328,8,104,8z"/>
<path style="fill:#8C95A4;" d="M232,136V72c0-17.672-14.328-32-32-32h-64c-17.672,0-32,14.328-32,32v64l16,16v128l-16,16v48  c0,17.672,14.328,32,32,32h64c17.672,0,32-14.328,32-32v-48l-16-16V152L232,136z"/>
<path style="fill:#798699;" d="M248,136V72c0-17.672-14.328-32-32-32h-16c17.672,0,32,14.328,32,32v64l-16,16v128l16,16v48  c0,17.672-14.328,32-32,32h16c17.672,0,32-14.328,32-32v-48l-16-16V152L248,136z"/>
<rect x="264" y="40" style="fill:#39C3FC;" width="192" height="112"/>
<g>
	<rect x="264" y="184" style="fill:#F9E0A6;" width="32" height="32"/>
	<rect x="344" y="184" style="fill:#F9E0A6;" width="32" height="32"/>
	<rect x="424" y="184" style="fill:#F9E0A6;" width="32" height="32"/>
	<rect x="264" y="264" style="fill:#F9E0A6;" width="32" height="32"/>
	<rect x="344" y="264" style="fill:#F9E0A6;" width="32" height="32"/>
	<rect x="424" y="264" style="fill:#F9E0A6;" width="32" height="32"/>
	<rect x="264" y="344" style="fill:#F9E0A6;" width="32" height="32"/>
	<rect x="344" y="344" style="fill:#F9E0A6;" width="32" height="32"/>
	<rect x="424" y="344" style="fill:#F9E0A6;" width="32" height="32"/>
</g>
<polygon style="fill:#148CE0;" points="392,40 456,40 456,152 368,152 "/>
<path style="fill:#8C95A4;" d="M464,9.128v397.736c13.776-3.568,24-15.976,24-30.872V40C488,25.104,477.776,12.696,464,9.128z"/>
<path d="M456,0H104C81.944,0,64,17.944,64,40v168h-8c-22.056,0-40,17.944-40,40v40H0v16h32v-56c0-13.232,10.768-24,24-24h8v152  c0,22.056,17.944,40,40,40h56v40c0,13.232-10.768,24-24,24H56c-13.232,0-24-10.768-24-24v-24h16v-16H16v40c0,22.056,17.944,40,40,40  h80c22.056,0,40-17.944,40-40v-40h280c22.056,0,40-17.944,40-40V40C496,17.944,478.056,0,456,0z M480,376c0,13.232-10.768,24-24,24  H176v-16h24c22.056,0,40-17.944,40-40v-51.312l-16-16V155.312l16-16V72c0-22.056-17.944-40-40-40h-64c-22.056,0-40,17.944-40,40  v67.312l16,16v121.376l-16,16V344c0,22.056,17.944,40,40,40h24v16h-56c-13.232,0-24-10.768-24-24V40c0-13.232,10.768-24,24-24h352  c13.232,0,24,10.768,24,24V376z M112,132.688V72c0-13.232,10.768-24,24-24h64c13.232,0,24,10.768,24,24v60.688l-16,16v134.624l16,16  V344c0,13.232-10.768,24-24,24h-64c-13.232,0-24-10.768-24-24v-44.688l16-16V148.688L112,132.688z"/>
<rect x="128" y="64" width="48" height="16"/>
<rect x="128" y="336" width="48" height="16"/>
<polygon points="256,160 416,160 416,144 272,144 272,48 448,48 448,144 432,144 432,160 464,160 464,32 256,32 "/>
<path d="M256,224h48v-48h-48V224z M272,192h16v16h-16V192z"/>
<path d="M336,224h48v-48h-48V224z M352,192h16v16h-16V192z"/>
<path d="M416,224h48v-48h-48V224z M432,192h16v16h-16V192z"/>
<path d="M256,304h48v-48h-48V304z M272,272h16v16h-16V272z"/>
<path d="M336,304h48v-48h-48V304z M352,272h16v16h-16V272z"/>
<path d="M416,304h48v-48h-48V304z M432,272h16v16h-16V272z"/>
<path d="M256,384h48v-48h-48V384z M272,352h16v16h-16V352z"/>
<path d="M336,384h48v-48h-48V384z M352,352h16v16h-16V352z"/>
<path d="M416,384h48v-48h-48V384z M432,352h16v16h-16V352z"/>
<rect x="288" y="64" width="112" height="16"/>
<rect y="320" width="48" height="16"/>
<rect y="352" width="48" height="16"/>
<rect y="384" width="48" height="16"/>
<rect x="192" y="64" width="16" height="16"/>
<rect x="192" y="336" width="16" height="16"/>
<rect x="416" y="64" width="16" height="16"/>
<g>
</g>
<g>
</g>
<g>
</g>
<g>
</g>
<g>
</g>
<g>
</g>
<g>
</g>
<g>
</g>
<g>
</g>
<g>
</g>
<g>
</g>
<g>
</g>
<g>
</g>
<g>
</g>
<g>
</g>
</svg>